<?xml version="1.0" encoding="UTF-8" standalone="no"?>
<!-- Created with Inkscape (http://www.inkscape.org/) -->

<svg
   width="86.074707mm"
   height="50.074997mm"
   viewBox="1 1 86.074709 50.074985"
   version="1.1"
   id="svg8"
   inkscape:version="1.2.2 (b0a84865, 2022-12-01)"
   sodipodi:docname="ks-threads-1d-1block.svg"
   xmlns:inkscape="http://www.inkscape.org/namespaces/inkscape"
   xmlns:sodipodi="http://sodipodi.sourceforge.net/DTD/sodipodi-0.dtd"
   xmlns="http://www.w3.org/2000/svg"
   xmlns:svg="http://www.w3.org/2000/svg"
   xmlns:rdf="http://www.w3.org/1999/02/22-rdf-syntax-ns#"
   xmlns:cc="http://creativecommons.org/ns#"
   xmlns:dc="http://purl.org/dc/elements/1.1/">
  <defs
     id="defs2">
    <marker
       inkscape:stockid="Arrow1Lend"
       orient="auto"
       refY="0"
       refX="0"
       id="Arrow1Lend"
       style="overflow:visible"
       inkscape:isstock="true">
      <path
         id="path893"
         d="M 0,0 5,-5 -12.5,0 5,5 Z"
         style="fill:#000000;fill-opacity:1;fill-rule:evenodd;stroke:#000000;stroke-width:1pt;stroke-opacity:1"
         transform="matrix(-0.8,0,0,-0.8,-10,0)"
         inkscape:connector-curvature="0" />
    </marker>
    <clipPath
       id="clipPath2358">
      <path
         clip-rule="nonzero"
         d="M 3,2 H 8 V 7.621094 H 3 Z m 0,0"
         id="path7375" />
    </clipPath>
    <clipPath
       id="clipPath7862">
      <path
         clip-rule="nonzero"
         d="m 6,5 h 6 v 8.171875 H 6 Z m 0,0"
         id="path9863" />
    </clipPath>
    <clipPath
       id="clipPath30">
      <path
         clip-rule="nonzero"
         d="m 7,5 h 4 v 8.171875 H 7 Z m 0,0"
         id="path8372" />
    </clipPath>
    <clipPath
       id="clipPath3528">
      <path
         clip-rule="nonzero"
         d="m 6,5 h 5 v 8.171875 H 6 Z m 0,0"
         id="path5342" />
    </clipPath>
    <clipPath
       id="clipPath7724">
      <path
         clip-rule="nonzero"
         d="m 6,5 h 6 v 8.171875 H 6 Z m 0,0"
         id="path2607" />
    </clipPath>
    <clipPath
       id="clipPath3071">
      <path
         clip-rule="nonzero"
         d="M 1,0 H 4 V 1.675781 H 1 Z m 0,0"
         id="path3584" />
    </clipPath>
    <clipPath
       id="clipPath8477">
      <path
         clip-rule="nonzero"
         d="m 9,0 h 2 V 1.675781 H 9 Z m 0,0"
         id="path4553" />
    </clipPath>
    <clipPath
       id="clipPath7967">
      <path
         clip-rule="nonzero"
         d="m 16,0 h 3 v 1.675781 h -3 z m 0,0"
         id="path8012" />
    </clipPath>
    <clipPath
       id="clipPath3620">
      <path
         clip-rule="nonzero"
         d="M 1,0 H 4 V 2.007812 H 1 Z m 0,0"
         id="path919" />
    </clipPath>
    <clipPath
       id="clipPath7720">
      <path
         clip-rule="nonzero"
         d="m 10,0 h 3 v 2.007812 h -3 z m 0,0"
         id="path7326" />
    </clipPath>
    <clipPath
       id="clipPath1718">
      <path
         clip-rule="nonzero"
         d="m 19,0 h 3 v 2.007812 h -3 z m 0,0"
         id="path1022" />
    </clipPath>
    <clipPath
       id="clipPath3704">
      <path
         clip-rule="nonzero"
         d="M 1,0 H 20 V 8.894531 H 1 Z m 0,0"
         id="path8954" />
    </clipPath>
    <clipPath
       id="clipPath9090">
      <path
         clip-rule="nonzero"
         d="M 26,0 H 37.898438 V 8.894531 H 26 Z m 0,0"
         id="path6483" />
    </clipPath>
    <clipPath
       id="clipPath1062">
      <path
         clip-rule="nonzero"
         d="M 0,0 H 11 V 8.894531 H 0 Z m 0,0"
         id="path1087" />
    </clipPath>
    <clipPath
       id="clipPath9828">
      <path
         clip-rule="nonzero"
         d="M 18,0 H 37 V 8.894531 H 18 Z m 0,0"
         id="path3954" />
    </clipPath>
  </defs>
  <sodipodi:namedview
     id="base"
     pagecolor="#ffffff"
     bordercolor="#666666"
     borderopacity="1.0"
     inkscape:pageopacity="0.0"
     inkscape:pageshadow="2"
     inkscape:zoom="1.6290957"
     inkscape:cx="199.8041"
     inkscape:cy="73.046662"
     inkscape:document-units="mm"
     inkscape:current-layer="layer1"
     showgrid="true"
     inkscape:snap-global="true"
     inkscape:snap-bbox="false"
     inkscape:pagecheckerboard="false"
     inkscape:snap-grids="true"
     inkscape:snap-nodes="true"
     inkscape:snap-object-midpoints="true"
     inkscape:snap-text-baseline="true"
     inkscape:window-width="1440"
     inkscape:window-height="830"
     inkscape:window-x="310"
     inkscape:window-y="245"
     inkscape:window-maximized="0"
     fit-margin-top="1"
     fit-margin-left="20"
     fit-margin-right="20"
     fit-margin-bottom="1"
     scale-x="1"
     viewbox-y="1"
     viewbox-x="1"
     inkscape:lockguides="false"
     inkscape:showpageshadow="2"
     inkscape:deskcolor="#d1d1d1">
    <inkscape:grid
       type="xygrid"
       id="grid815"
       empspacing="10"
       spacingx="0.52916667"
       spacingy="0.52916667"
       originx="-50.058553"
       originy="-190.92054" />
  </sodipodi:namedview>
  <metadata
     id="metadata5">
    <rdf:RDF>
      <cc:Work
         rdf:about="">
        <dc:format>image/svg+xml</dc:format>
        <dc:type
           rdf:resource="http://purl.org/dc/dcmitype/StillImage" />
      </cc:Work>
    </rdf:RDF>
  </metadata>
  <g
     inkscape:label="Layer 1"
     inkscape:groupmode="layer"
     id="layer1"
     transform="translate(-50.0585, -54.0042)">
    <path
       style="fill:none;stroke:#000000;stroke-width:0.524;stroke-dasharray:none"
       d="M 133.29161,70.458661 H 53.916615 v 10.583333 h 79.374995"
       id="path580" />
    <path
       style="fill:none;stroke:#000000;stroke-width:0.523999;stroke-dasharray:none"
       d="m 64.499995,81.041958 c 0,-5.291666 0,-10.583333 0,-10.583333"
       id="path1207" />
    <path
       style="fill:none;stroke:#000000;stroke-width:0.523999;stroke-dasharray:none"
       d="M 75.083328,81.041958 V 70.458625"
       id="path1209" />
    <path
       style="fill:none;stroke:#000000;stroke-width:0.523999;stroke-dasharray:none"
       d="M 85.666661,81.041958 V 70.458625"
       id="path1211" />
    <path
       style="fill:none;stroke:#000000;stroke-width:0.523999;stroke-dasharray:none"
       d="M 96.249995,81.041958 V 70.458625"
       id="path1213" />
    <g
       inkscape:label=""
       transform="translate(57.316046,73.395763)"
       id="g2007">
      <g
         fill="#000000"
         fill-opacity="1"
         id="g1997"
         transform="matrix(0.352778,0,0,0.352778,-0.132292,0.0623094)">
        <g
           id="g1995"
           transform="translate(0,10.589)">
          <path
             d="m 3.46875,-6.921875 h 1.578125 c 0.328125,0 0.5,0 0.5,-0.3125 0,-0.1875 -0.109375,-0.1875 -0.453125,-0.1875 H 3.578125 L 4.21875,-9.9375 c 0.0625,-0.234375 0.0625,-0.265625 0.0625,-0.390625 0,-0.28125 -0.21875,-0.4375 -0.4375,-0.4375 -0.140625,0 -0.53125,0.0625 -0.671875,0.609375 L 2.5,-7.421875 H 0.875 c -0.34375,0 -0.5,0 -0.5,0.328125 0,0.171875 0.125,0.171875 0.453125,0.171875 h 1.53125 L 1.21875,-2.375 c -0.140625,0.59375 -0.1875,0.78125 -0.1875,1 0,0.8125 0.5625,1.546875 1.53125,1.546875 1.75,0 2.671875,-2.515625 2.671875,-2.640625 0,-0.09375 -0.0625,-0.15625 -0.171875,-0.15625 -0.03125,0 -0.109375,0 -0.140625,0.078125 -0.015625,0.015625 -0.03125,0.03125 -0.15625,0.3125 -0.359375,0.859375 -1.15625,2.0625 -2.140625,2.0625 -0.53125,0 -0.5625,-0.4375 -0.5625,-0.8125 0,-0.015625 0,-0.34375 0.0625,-0.546875 z m 0,0"
             id="path1993" />
        </g>
      </g>
      <g
         clip-path="url(#clipPath7862)"
         id="g2005"
         transform="matrix(0.352778,0,0,0.352778,-0.132292,0.0623094)">
        <g
           fill="#000000"
           fill-opacity="1"
           id="g2003">
          <g
             id="g2001"
             transform="translate(6.0869999,13.171)">
            <path
               d="m 5.015625,-3.484375 c 0,-0.875 -0.046875,-1.75 -0.4375,-2.5625 -0.5,-1.046875 -1.390625,-1.21875 -1.859375,-1.21875 -0.640625,0 -1.4375,0.28125 -1.890625,1.296875 -0.34375,0.75 -0.40625,1.609375 -0.40625,2.484375 0,0.8125 0.046875,1.796875 0.5,2.625 0.46875,0.875 1.265625,1.09375 1.796875,1.09375 0.578125,0 1.421875,-0.21875 1.890625,-1.265625 0.359375,-0.75 0.40625,-1.59375 0.40625,-2.453125 z M 2.71875,0 C 2.296875,0 1.640625,-0.265625 1.453125,-1.3125 c -0.125,-0.65625 -0.125,-1.671875 -0.125,-2.3125 0,-0.6875 0,-1.40625 0.09375,-2 C 1.625,-6.921875 2.4375,-7.03125 2.71875,-7.03125 c 0.359375,0 1.078125,0.203125 1.28125,1.28125 0.109375,0.609375 0.109375,1.4375 0.109375,2.125 0,0.828125 0,1.5625 -0.125,2.265625 C 3.828125,-0.328125 3.203125,0 2.71875,0 Z m 0,0"
               id="path1999" />
          </g>
        </g>
      </g>
    </g>
    <g
       inkscape:label=""
       transform="translate(67.979305,73.395953)"
       id="g2164">
      <g
         fill="#000000"
         fill-opacity="1"
         id="g19"
         transform="matrix(0.352778,0,0,0.352778,-0.132292,0.0623094)">
        <g
           id="use17"
           transform="translate(0,10.589)">
          <path
             d="m 3.46875,-6.921875 h 1.578125 c 0.328125,0 0.5,0 0.5,-0.3125 0,-0.1875 -0.109375,-0.1875 -0.453125,-0.1875 H 3.578125 L 4.21875,-9.9375 c 0.0625,-0.234375 0.0625,-0.265625 0.0625,-0.390625 0,-0.28125 -0.21875,-0.4375 -0.4375,-0.4375 -0.140625,0 -0.53125,0.0625 -0.671875,0.609375 L 2.5,-7.421875 H 0.875 c -0.34375,0 -0.5,0 -0.5,0.328125 0,0.171875 0.125,0.171875 0.453125,0.171875 h 1.53125 L 1.21875,-2.375 c -0.140625,0.59375 -0.1875,0.78125 -0.1875,1 0,0.8125 0.5625,1.546875 1.53125,1.546875 1.75,0 2.671875,-2.515625 2.671875,-2.640625 0,-0.09375 -0.0625,-0.15625 -0.171875,-0.15625 -0.03125,0 -0.109375,0 -0.140625,0.078125 -0.015625,0.015625 -0.03125,0.03125 -0.15625,0.3125 -0.359375,0.859375 -1.15625,2.0625 -2.140625,2.0625 -0.53125,0 -0.5625,-0.4375 -0.5625,-0.8125 0,-0.015625 0,-0.34375 0.0625,-0.546875 z m 0,0"
             id="path31" />
        </g>
      </g>
      <g
         clip-path="url(#clipPath30)"
         id="g25"
         transform="matrix(0.352778,0,0,0.352778,-0.132292,0.0623094)">
        <g
           fill="#000000"
           fill-opacity="1"
           id="g23">
          <g
             id="use21"
             transform="translate(6.0869999,13.171)">
            <path
               d="m 3.203125,-6.984375 c 0,-0.25 0,-0.28125 -0.25,-0.28125 C 2.28125,-6.5625 1.3125,-6.5625 0.96875,-6.5625 v 0.328125 c 0.21875,0 0.859375,0 1.4375,-0.28125 v 5.65625 c 0,0.390625 -0.046875,0.515625 -1.015625,0.515625 H 1.03125 V 0 c 0.390625,-0.03125 1.328125,-0.03125 1.765625,-0.03125 0.4375,0 1.390625,0 1.765625,0.03125 V -0.34375 H 4.21875 c -0.984375,0 -1.015625,-0.109375 -1.015625,-0.515625 z m 0,0"
               id="path35" />
          </g>
        </g>
      </g>
    </g>
    <g
       inkscape:label=""
       transform="translate(78.504763,73.592319)"
       id="g2269">
      <g
         fill="#000000"
         fill-opacity="1"
         id="g2259"
         transform="matrix(0.352778,0,0,0.352778,-0.132292,0.0623094)">
        <g
           id="g2257"
           transform="translate(0,10.589)">
          <path
             d="m 3.46875,-6.921875 h 1.578125 c 0.328125,0 0.5,0 0.5,-0.3125 0,-0.1875 -0.109375,-0.1875 -0.453125,-0.1875 H 3.578125 L 4.21875,-9.9375 c 0.0625,-0.234375 0.0625,-0.265625 0.0625,-0.390625 0,-0.28125 -0.21875,-0.4375 -0.4375,-0.4375 -0.140625,0 -0.53125,0.0625 -0.671875,0.609375 L 2.5,-7.421875 H 0.875 c -0.34375,0 -0.5,0 -0.5,0.328125 0,0.171875 0.125,0.171875 0.453125,0.171875 h 1.53125 L 1.21875,-2.375 c -0.140625,0.59375 -0.1875,0.78125 -0.1875,1 0,0.8125 0.5625,1.546875 1.53125,1.546875 1.75,0 2.671875,-2.515625 2.671875,-2.640625 0,-0.09375 -0.0625,-0.15625 -0.171875,-0.15625 -0.03125,0 -0.109375,0 -0.140625,0.078125 -0.015625,0.015625 -0.03125,0.03125 -0.15625,0.3125 -0.359375,0.859375 -1.15625,2.0625 -2.140625,2.0625 -0.53125,0 -0.5625,-0.4375 -0.5625,-0.8125 0,-0.015625 0,-0.34375 0.0625,-0.546875 z m 0,0"
             id="path2255" />
        </g>
      </g>
      <g
         clip-path="url(#clipPath3528)"
         id="g2267"
         transform="matrix(0.352778,0,0,0.352778,-0.132292,0.0623094)">
        <g
           fill="#000000"
           fill-opacity="1"
           id="g2265">
          <g
             id="g2263"
             transform="translate(6.0869999,13.171)">
            <path
               d="m 1.390625,-0.84375 1.15625,-1.125 c 1.703125,-1.5 2.34375,-2.09375 2.34375,-3.171875 0,-1.25 -0.96875,-2.125 -2.3125,-2.125 -1.21875,0 -2.03125,1 -2.03125,1.96875 0,0.625 0.546875,0.625 0.578125,0.625 0.1875,0 0.5625,-0.140625 0.5625,-0.578125 0,-0.296875 -0.1875,-0.578125 -0.578125,-0.578125 -0.078125,0 -0.109375,0 -0.140625,0.015625 0.25,-0.703125 0.84375,-1.109375 1.46875,-1.109375 1,0 1.46875,0.875 1.46875,1.78125 0,0.859375 -0.546875,1.734375 -1.140625,2.40625 l -2.09375,2.328125 c -0.125,0.125 -0.125,0.140625 -0.125,0.40625 H 4.59375 L 4.890625,-1.890625 H 4.625 C 4.5625,-1.578125 4.5,-1.09375 4.390625,-0.921875 4.3125,-0.84375 3.59375,-0.84375 3.34375,-0.84375 Z m 0,0"
               id="path2261" />
          </g>
        </g>
      </g>
    </g>
    <g
       inkscape:label=""
       transform="translate(89.071555,73.443491)"
       id="g2394">
      <g
         fill="#000000"
         fill-opacity="1"
         id="g2384"
         transform="matrix(0.352778,0,0,0.352778,-0.132292,0.0623094)">
        <g
           id="g2382"
           transform="translate(0,10.589)">
          <path
             d="m 3.46875,-6.921875 h 1.578125 c 0.328125,0 0.5,0 0.5,-0.3125 0,-0.1875 -0.109375,-0.1875 -0.453125,-0.1875 H 3.578125 L 4.21875,-9.9375 c 0.0625,-0.234375 0.0625,-0.265625 0.0625,-0.390625 0,-0.28125 -0.21875,-0.4375 -0.4375,-0.4375 -0.140625,0 -0.53125,0.0625 -0.671875,0.609375 L 2.5,-7.421875 H 0.875 c -0.34375,0 -0.5,0 -0.5,0.328125 0,0.171875 0.125,0.171875 0.453125,0.171875 h 1.53125 L 1.21875,-2.375 c -0.140625,0.59375 -0.1875,0.78125 -0.1875,1 0,0.8125 0.5625,1.546875 1.53125,1.546875 1.75,0 2.671875,-2.515625 2.671875,-2.640625 0,-0.09375 -0.0625,-0.15625 -0.171875,-0.15625 -0.03125,0 -0.109375,0 -0.140625,0.078125 -0.015625,0.015625 -0.03125,0.03125 -0.15625,0.3125 -0.359375,0.859375 -1.15625,2.0625 -2.140625,2.0625 -0.53125,0 -0.5625,-0.4375 -0.5625,-0.8125 0,-0.015625 0,-0.34375 0.0625,-0.546875 z m 0,0"
             id="path2380" />
        </g>
      </g>
      <g
         clip-path="url(#clipPath7724)"
         id="g2392"
         transform="matrix(0.352778,0,0,0.352778,-0.132292,0.0623094)">
        <g
           fill="#000000"
           fill-opacity="1"
           id="g2390">
          <g
             id="g2388"
             transform="translate(6.0869999,13.171)">
            <path
               d="M 3.15625,-3.84375 C 4.0625,-4.140625 4.6875,-4.890625 4.6875,-5.765625 c 0,-0.890625 -0.953125,-1.5 -2,-1.5 -1.109375,0 -1.9375,0.65625 -1.9375,1.484375 0,0.359375 0.25,0.5625 0.5625,0.5625 0.328125,0 0.546875,-0.234375 0.546875,-0.546875 0,-0.546875 -0.5,-0.546875 -0.671875,-0.546875 C 1.53125,-6.84375 2.25,-6.984375 2.640625,-6.984375 3.09375,-6.984375 3.6875,-6.75 3.6875,-5.765625 3.6875,-5.640625 3.671875,-5 3.375,-4.53125 3.046875,-4 2.6875,-3.96875 2.40625,-3.953125 c -0.078125,0 -0.34375,0.03125 -0.421875,0.03125 -0.09375,0 -0.15625,0.015625 -0.15625,0.125 0,0.125 0.0625,0.125 0.25,0.125 H 2.5625 c 0.890625,0 1.296875,0.734375 1.296875,1.8125 0,1.484375 -0.75,1.796875 -1.234375,1.796875 -0.46875,0 -1.28125,-0.1875 -1.671875,-0.828125 0.390625,0.046875 0.71875,-0.1875 0.71875,-0.609375 0,-0.390625 -0.28125,-0.609375 -0.609375,-0.609375 -0.25,0 -0.609375,0.15625 -0.609375,0.640625 0,0.984375 1.015625,1.703125 2.203125,1.703125 1.328125,0 2.328125,-0.984375 2.328125,-2.09375 0,-0.90625 -0.6875,-1.75 -1.828125,-1.984375 z m 0,0"
               id="path2386" />
          </g>
        </g>
      </g>
    </g>
    <g
       inkscape:label=""
       transform="translate(101.54161,75.403062)"
       id="g2738">
      <g
         clip-path="url(#clipPath3620)"
         id="g2728"
         transform="matrix(0.352778,0,0,0.352778,-0.633897,-0.00317502)">
        <g
           fill="#000000"
           fill-opacity="1"
           id="g21">
          <g
             id="use19"
             transform="translate(0,2.0090001)">
            <path
               d="M 3.796875,-0.984375 C 3.796875,-1.59375 3.3125,-2 2.8125,-2 2.203125,-2 1.796875,-1.515625 1.796875,-1.015625 1.796875,-0.40625 2.296875,0 2.78125,0 3.390625,0 3.796875,-0.5 3.796875,-0.984375 Z m 0,0"
               id="path41" />
          </g>
        </g>
      </g>
      <g
         clip-path="url(#clipPath7720)"
         id="g29"
         transform="matrix(0.352778,0,0,0.352778,-0.633897,-0.00317502)">
        <g
           fill="#000000"
           fill-opacity="1"
           id="g27">
          <g
             id="use25"
             transform="translate(9.070837,2.0090001)">
            <path
               d="M 3.796875,-0.984375 C 3.796875,-1.59375 3.3125,-2 2.8125,-2 2.203125,-2 1.796875,-1.515625 1.796875,-1.015625 1.796875,-0.40625 2.296875,0 2.78125,0 3.390625,0 3.796875,-0.5 3.796875,-0.984375 Z m 0,0"
               id="path45" />
          </g>
        </g>
      </g>
      <g
         clip-path="url(#clipPath1718)"
         id="g35"
         transform="matrix(0.352778,0,0,0.352778,-0.633897,-0.00317502)">
        <g
           fill="#000000"
           fill-opacity="1"
           id="g33">
          <g
             id="use31"
             transform="translate(18.121012,2.0090001)">
            <path
               d="M 3.796875,-0.984375 C 3.796875,-1.59375 3.3125,-2 2.8125,-2 2.203125,-2 1.796875,-1.515625 1.796875,-1.015625 1.796875,-0.40625 2.296875,0 2.78125,0 3.390625,0 3.796875,-0.5 3.796875,-0.984375 Z m 0,0"
               id="path49" />
          </g>
        </g>
      </g>
    </g>
    <g
       inkscape:label=""
       transform="translate(108.16905,84.28314)"
       id="g3309">
      <g
         clip-path="url(#clipPath1062)"
         id="g3299"
         transform="matrix(0.352778,0,0,0.352778,-0.20395,0.587904)">
        <g
           fill="#000000"
           fill-opacity="1"
           id="g3297">
          <g
             id="g3295"
             transform="translate(0,8.8959999)">
            <path
               d="m 9.796875,-8.421875 c -0.671875,0.125 -0.921875,0.609375 -0.921875,1 0,0.5 0.40625,0.671875 0.6875,0.671875 0.625,0 1.0625,-0.546875 1.0625,-1.09375 0,-0.875 -1,-1.265625 -1.859375,-1.265625 -1.265625,0 -1.96875,1.234375 -2.15625,1.625 -0.46875,-1.546875 -1.75,-1.625 -2.125,-1.625 -2.109375,0 -3.21875,2.703125 -3.21875,3.15625 0,0.09375 0.078125,0.1875 0.21875,0.1875 0.171875,0 0.203125,-0.125 0.25,-0.203125 0.703125,-2.296875 2.09375,-2.734375 2.6875,-2.734375 0.921875,0 1.109375,0.875 1.109375,1.375 0,0.453125 -0.125,0.921875 -0.359375,1.921875 L 4.46875,-2.578125 c -0.3125,1.234375 -0.921875,2.375 -2.015625,2.375 -0.09375,0 -0.609375,0 -1.046875,-0.265625 C 2.140625,-0.625 2.3125,-1.234375 2.3125,-1.484375 2.3125,-1.90625 2,-2.140625 1.609375,-2.140625 c -0.5,0 -1.03125,0.421875 -1.03125,1.09375 0,0.859375 0.96875,1.25 1.859375,1.25 0.984375,0 1.6875,-0.78125 2.125,-1.625 0.328125,1.21875 1.359375,1.625 2.125,1.625 2.109375,0 3.234375,-2.703125 3.234375,-3.15625 0,-0.109375 -0.09375,-0.1875 -0.21875,-0.1875 -0.1875,0 -0.203125,0.109375 -0.265625,0.265625 -0.5625,1.828125 -1.75,2.671875 -2.6875,2.671875 -0.71875,0 -1.109375,-0.546875 -1.109375,-1.390625 0,-0.453125 0.078125,-0.78125 0.40625,-2.140625 l 0.734375,-2.8125 c 0.296875,-1.234375 1,-2.15625 1.953125,-2.15625 0.046875,0 0.625,0 1.0625,0.28125 z m 0,0"
               id="path3293" />
          </g>
        </g>
      </g>
      <g
         clip-path="url(#clipPath9828)"
         id="g3307"
         transform="matrix(0.352778,0,0,0.352778,-0.20395,0.587904)">
        <g
           fill="#000000"
           fill-opacity="1"
           id="g3305">
          <g
             id="g3303"
             transform="translate(17.237,8.8959999)">
            <path
               d="m 17.234375,-4.75 c -1.140625,0.859375 -1.703125,1.71875 -1.859375,1.984375 -0.9375,1.421875 -1.09375,2.71875 -1.09375,2.75 0,0.25 0.234375,0.25 0.40625,0.25 0.34375,0 0.375,-0.046875 0.453125,-0.421875 0.46875,-2.015625 1.6875,-3.765625 4.03125,-4.703125 0.25,-0.09375 0.3125,-0.125 0.3125,-0.28125 0,-0.140625 -0.125,-0.203125 -0.171875,-0.21875 C 18.40625,-5.75 15.90625,-6.78125 15.125,-10.25 c -0.0625,-0.25 -0.09375,-0.3125 -0.4375,-0.3125 -0.171875,0 -0.40625,0 -0.40625,0.25 0,0.04687 0.171875,1.34375 1.046875,2.734375 0.40625,0.609375 1.015625,1.34375 1.90625,2 H 1.875 c -0.359375,0 -0.734375,0 -0.734375,0.40625 0,0.421875 0.375,0.421875 0.734375,0.421875 z m 0,0"
               id="path3301" />
          </g>
        </g>
      </g>
    </g>
  </g>
</svg>
